<?xml version="1.0" standalone="no"?>
<!DOCTYPE svg PUBLIC "-//W3C//DTD SVG 20010904//EN"
 "http://www.w3.org/TR/2001/REC-SVG-20010904/DTD/svg10.dtd">
<svg version="1.0" xmlns="http://www.w3.org/2000/svg"
 width="612.000000pt" height="612.000000pt" viewBox="0 0 612.000000 612.000000"
 preserveAspectRatio="xMidYMid meet">

<g transform="translate(0.000000,612.000000) scale(0.100000,-0.100000)"
fill="#000000" stroke="none">
<path d="M2855 3986 c-295 -59 -547 -256 -676 -530 -67 -144 -82 -217 -82
-396 0 -179 16 -259 83 -398 55 -114 97 -176 182 -262 135 -137 309 -231 493
-265 121 -23 318 -16 424 15 348 100 602 371 676 723 31 144 12 420 -31 452
-28 21 -77 18 -103 -6 -20 -19 -22 -28 -16 -68 28 -185 22 -311 -21 -439 -109
-328 -406 -542 -752 -542 -135 0 -225 21 -347 80 -162 79 -288 205 -364 363
-53 110 -71 181 -78 307 -25 450 334 830 785 830 125 0 227 -23 344 -76 90
-41 100 -44 125 -32 34 16 50 58 37 96 -12 35 -144 102 -264 133 -107 28 -311
35 -415 15z"/>
<path d="M3923 3917 c-13 -6 -100 -104 -196 -217 -95 -113 -284 -338 -421
-500 -137 -162 -254 -301 -261 -308 -9 -10 -41 23 -155 165 -230 285 -237 293
-273 293 -18 0 -37 -4 -43 -8 -16 -10 -34 -48 -34 -70 0 -18 397 -525 442
-564 11 -10 35 -18 54 -18 31 0 49 18 311 328 152 180 315 372 361 427 47 55
128 151 181 214 157 185 164 199 116 246 -27 28 -49 31 -82 12z"/>
</g>
</svg>
